<svg xmlns="http://www.w3.org/2000/svg" viewBox="400 58 240 240" width="240" height="240">
<g><circle cx="570.47" cy="96.00" r="8.50" fill="#8b5cf6" opacity="0.45"/><circle cx="586.74" cy="108.23" r="8.50" fill="#22b3e8" opacity="0.49"/><circle cx="600.12" cy="123.57" r="8.50" fill="#e3a32b" opacity="0.54"/><circle cx="610.05" cy="141.33" r="8.50" fill="#eb6b93" opacity="0.58"/><circle cx="616.09" cy="160.76" r="8.50" fill="#8b5cf6" opacity="0.63"/><circle cx="617.99" cy="181.03" r="8.50" fill="#22b3e8" opacity="0.67"/><circle cx="615.67" cy="201.24" r="8.50" fill="#e3a32b" opacity="0.71"/><circle cx="609.22" cy="220.55" r="8.50" fill="#eb6b93" opacity="0.76"/><circle cx="598.92" cy="238.10" r="8.50" fill="#8b5cf6" opacity="0.80"/><circle cx="585.22" cy="253.15" r="8.50" fill="#22b3e8" opacity="0.85"/><circle cx="568.70" cy="265.04" r="8.50" fill="#e3a32b" opacity="0.89"/><circle cx="550.09" cy="273.27" r="8.50" fill="#eb6b93" opacity="0.93"/><circle cx="530.18" cy="277.47" r="8.50" fill="#8b5cf6" opacity="0.98"/><circle cx="509.82" cy="277.47" r="8.50" fill="#8b9bff" opacity="1.00"/><circle cx="489.91" cy="273.27" r="8.50" fill="#8b9bff" opacity="1.00"/><circle cx="471.30" cy="265.04" r="8.50" fill="#8b9bff" opacity="1.00"/><circle cx="454.78" cy="253.15" r="8.50" fill="#8b9bff" opacity="1.00"/><circle cx="441.08" cy="238.10" r="8.50" fill="#8b9bff" opacity="1.00"/><circle cx="430.78" cy="220.55" r="8.50" fill="#8b9bff" opacity="1.00"/><circle cx="424.33" cy="201.24" r="8.50" fill="#8b9bff" opacity="1.00"/><circle cx="422.01" cy="181.03" r="8.50" fill="#8b9bff" opacity="1.00"/><circle cx="423.91" cy="160.76" r="8.50" fill="#8b9bff" opacity="1.00"/><circle cx="429.95" cy="141.33" r="8.50" fill="#8b9bff" opacity="1.00"/><circle cx="439.88" cy="123.57" r="8.50" fill="#8b9bff" opacity="1.00"/><circle cx="453.26" cy="108.23" r="8.50" fill="#8b9bff" opacity="1.00"/><circle cx="469.53" cy="96.00" r="8.50" fill="#8b9bff" opacity="1.00"/><path d="M457.21 76.43 L487.98 87.38 L470.54 114.99" fill="none" stroke="#8b9bff" stroke-width="14.45" stroke-linecap="round" stroke-linejoin="round"/></g>
</svg>
